<?xml version="1.0" encoding="UTF-8"?>
<svg id="Capa_1" xmlns="http://www.w3.org/2000/svg" xmlns:xlink="http://www.w3.org/1999/xlink" version="1.1" viewBox="0 0 485.33 169.73">
  <!-- Generator: Adobe Illustrator 29.4.0, SVG Export Plug-In . SVG Version: 2.1.0 Build 152)  -->
  <defs>
    <style>
      .st0 {
        fill: url(#linear-gradient1);
      }

      .st1 {
        fill: url(#linear-gradient);
      }

      .st2 {
        fill: #B0B3B8;
      }

      .st3 {
        fill: #B0B3B8;
      }
    </style>
    <linearGradient id="linear-gradient" x1="26.03" y1="78.94" x2="123.51" y2="78.94" gradientUnits="userSpaceOnUse">
      <stop offset="0" stop-color="#B0B3B8"/>
      <stop offset="1" stop-color="#B0B3B8"/>
    </linearGradient>
    <linearGradient id="linear-gradient1" x1="68.25" y1="96.28" y2="96.28" xlink:href="#linear-gradient"/>
  </defs>
  <g>
    <path class="st3" d="M131.82,75.94v-43.58h7.48v43.58h-7.48Z"/>
    <path class="st3" d="M147.58,75.94v-43.58h6.94l9.11,24.93h.12v-24.93h6.76v43.58h-6.52l-9.54-27.22h-.12v27.22h-6.76Z"/>
    <path class="st3" d="M182.09,38.88h-7.24v-6.52h21.97v6.52h-7.24v37.06h-7.48v-37.06Z"/>
    <path class="st3" d="M201.22,75.94v-43.58h20.04v6.52h-12.55v11.23h9.66v6.52h-9.66v12.79h13.4v6.52h-20.88Z"/>
    <path class="st3" d="M235.5,75.94h-7.48v-43.58h10.5c8.39,0,12.67,3.56,12.67,12.86,0,7-2.72,9.84-5.25,10.98l6.34,19.74h-7.6l-5.31-18.05c-.97.12-2.53.18-3.86.18v17.86ZM235.5,51.92h2.66c4.04,0,5.55-1.51,5.55-6.7s-1.51-6.7-5.55-6.7h-2.66v13.4Z"/>
    <path class="st3" d="M258.19,75.94v-43.58h6.94l9.11,24.93h.12v-24.93h6.76v43.58h-6.52l-9.54-27.22h-.12v27.22h-6.76Z"/>
    <path class="st3" d="M292.71,75.94h-7.24l8.03-43.58h9.29l8.03,43.58h-7.24l-1.33-9.66h-8.21l-1.33,9.66ZM295.12,59.76h6.03l-2.96-18.71h-.12l-2.96,18.71Z"/>
    <path class="st3" d="M317.27,38.88h-7.24v-6.52h21.97v6.52h-7.24v37.06h-7.48v-37.06Z"/>
    <path class="st3" d="M337.42,75.94v-43.58h7.48v43.58h-7.48Z"/>
    <path class="st3" d="M353.17,42.92c0-6.16,3.62-11.17,11.47-11.17s11.47,5.01,11.47,11.17v22.45c0,6.16-3.62,11.17-11.47,11.17s-11.47-5.01-11.47-11.17v-22.45ZM360.66,65.19c0,3.26.97,4.83,3.98,4.83s3.98-1.57,3.98-4.83v-22.09c0-3.26-.97-4.83-3.98-4.83s-3.98,1.57-3.98,4.83v22.09Z"/>
    <path class="st3" d="M383.35,75.94v-43.58h6.94l9.11,24.93h.12v-24.93h6.76v43.58h-6.52l-9.54-27.22h-.12v27.22h-6.76Z"/>
    <path class="st3" d="M417.87,75.94h-7.24l8.03-43.58h9.29l8.03,43.58h-7.24l-1.33-9.66h-8.21l-1.33,9.66ZM420.28,59.76h6.03l-2.96-18.71h-.12l-2.96,18.71Z"/>
    <path class="st3" d="M439.95,75.94v-43.58h7.48v37.06h11.77v6.52h-19.25Z"/>
  </g>
  <g>
    <path class="st2" d="M135.87,84.11v18.83h12.79v-18.83h4.71v43.58h-4.71v-20.76h-12.79v20.76h-4.71v-43.58h4.71Z"/>
    <path class="st2" d="M217.04,128.28c-7.36,0-12.31-6.16-12.31-22.39s4.95-22.39,12.31-22.39,12.31,6.16,12.31,22.39-4.95,22.39-12.31,22.39ZM217.04,87.49c-4.22,0-7.6,3.62-7.6,18.41s3.38,18.41,7.6,18.41,7.6-3.62,7.6-18.41-3.38-18.41-7.6-18.41Z"/>
    <path class="st2" d="M287.58,84.11l7.6,32.95h.12l7.42-32.95h7.48v43.58h-4.34v-39.95h-.12l-9.05,39.95h-3.08l-9.05-39.95h-.12v39.95h-4.34v-43.58h7.48Z"/>
    <path class="st2" d="M382.08,84.11v3.98h-15.21v14.85h11.23v3.98h-11.23v16.78h15.93v3.98h-20.64v-43.58h19.92Z"/>
    <path class="st2" d="M449.13,95.33c-.36-4.47-2.17-7.85-6.7-7.85-3.62,0-5.98,2.41-5.98,5.73,0,9.84,17.5,9.96,17.5,23.96,0,6.94-3.98,11.11-11.17,11.11s-10.92-5.01-11.04-12.31h4.34c.12,5.13,2.54,8.33,7.18,8.33,3.92,0,6.46-2.53,6.46-7.18,0-9.9-17.5-11.05-17.5-23.48,0-6.16,4.22-10.14,10.5-10.14s10.38,4.22,10.74,11.83h-4.34Z"/>
  </g>
  <polygon class="st1" points="57.49 84.17 99.29 51.16 123.51 70.29 123.51 30.19 26.03 30.19 26.03 127.68 57.49 127.68 57.49 84.17"/>
  <polygon class="st0" points="68.25 89.36 68.25 127.68 123.51 127.68 123.51 84 99.29 64.89 68.25 89.36"/>
</svg>